<svg width="18" height="6" viewBox="0 0 18 6" fill="none" xmlns="http://www.w3.org/2000/svg">
<path d="M0.471591 6V5.11364L2.54261 3.19602C2.71875 3.02557 2.86648 2.87216 2.9858 2.7358C3.10701 2.59943 3.19886 2.46591 3.26136 2.33523C3.32386 2.20265 3.35511 2.05966 3.35511 1.90625C3.35511 1.7358 3.31629 1.58902 3.23864 1.46591C3.16098 1.34091 3.05492 1.24527 2.92045 1.17898C2.78598 1.1108 2.63352 1.0767 2.46307 1.0767C2.28504 1.0767 2.12973 1.11269 1.99716 1.18466C1.86458 1.25663 1.76231 1.35985 1.69034 1.49432C1.61837 1.62879 1.58239 1.78883 1.58239 1.97443H0.414773C0.414773 1.59375 0.500947 1.26326 0.673295 0.982955C0.845644 0.702652 1.08712 0.485795 1.39773 0.332386C1.70833 0.178977 2.06629 0.102273 2.47159 0.102273C2.88826 0.102273 3.25095 0.176136 3.55966 0.323864C3.87027 0.469697 4.11174 0.672348 4.28409 0.931818C4.45644 1.19129 4.54261 1.48864 4.54261 1.82386C4.54261 2.04356 4.49905 2.26042 4.41193 2.47443C4.3267 2.68845 4.17424 2.92614 3.95455 3.1875C3.73485 3.44697 3.42519 3.75852 3.02557 4.12216L2.17614 4.95455V4.99432H4.61932V6H0.471591ZM5.29759 4.97727V4.00852L7.72656 0.181818H8.56179V1.52273H8.06747L6.53622 3.94602V3.99148H9.98793V4.97727H5.29759ZM8.0902 6V4.68182L8.11293 4.25284V0.181818H9.26634V6H8.0902ZM12.6932 6V0.181818H13.9233V2.58239H16.4205V0.181818H17.6477V6H16.4205V3.59659H13.9233V6H12.6932Z" fill="#1E1E1E"/>
</svg>
