<svg width="80" height="80" viewBox="0 0 20 20" fill="none" xmlns="http://www.w3.org/2000/svg">
<path d="M9.99499 15C9.58431 15 9.24374 14.8567 8.92321 14.5511L1.38063 7.19675C1.1202 6.94842 1 6.65234 1 6.29895C1 5.58262 1.59098 5 2.34224 5C2.71285 5 3.05342 5.15282 3.32387 5.4107L9.98498 11.9436L16.6661 5.4107C16.9366 5.15282 17.2671 5 17.6477 5C18.399 5 19 5.58262 19 6.29895C19 6.65234 18.8698 6.94842 18.6093 7.19675L11.0668 14.5511C10.7462 14.8663 10.4057 15 9.99499 15Z" fill="#4C4C4C"/>
</svg>
